<mxfile host="app.diagrams.net" modified="2022-09-03T15:01:00.521Z" agent="5.0 (Macintosh; Intel Mac OS X 10_15_7) AppleWebKit/537.36 (KHTML, like Gecko) Chrome/104.0.5112.87 Whale/3.16.138.22 Safari/537.36" etag="OXoH5ROH91HRhDImju5F" version="20.2.7" type="github">
  <diagram id="R2lEEEUBdFMjLlhIrx00" name="Page-1">
    <mxGraphModel dx="1018" dy="658" grid="1" gridSize="10" guides="1" tooltips="1" connect="1" arrows="1" fold="1" page="1" pageScale="1" pageWidth="850" pageHeight="1100" math="0" shadow="0" extFonts="Permanent Marker^https://fonts.googleapis.com/css?family=Permanent+Marker">
      <root>
        <mxCell id="0" />
        <mxCell id="1" parent="0" />
        <mxCell id="u3Su8oJdby9Ypt89WTdl-159" style="edgeStyle=orthogonalEdgeStyle;rounded=0;orthogonalLoop=1;jettySize=auto;html=1;startArrow=ERzeroToMany;startFill=0;endArrow=ERone;endFill=0;entryX=-0.025;entryY=-0.133;entryDx=0;entryDy=0;entryPerimeter=0;" parent="1" edge="1">
          <mxGeometry relative="1" as="geometry">
            <mxPoint x="573.5" y="317.01" as="targetPoint" />
            <Array as="points">
              <mxPoint x="355" y="316" />
            </Array>
            <mxPoint x="355" y="630" as="sourcePoint" />
          </mxGeometry>
        </mxCell>
        <mxCell id="u3Su8oJdby9Ypt89WTdl-11" value="history" style="shape=table;startSize=30;container=1;collapsible=1;childLayout=tableLayout;fixedRows=1;rowLines=0;fontStyle=1;align=center;resizeLast=1;" parent="1" vertex="1">
          <mxGeometry x="246" y="630" width="175" height="350" as="geometry" />
        </mxCell>
        <mxCell id="u3Su8oJdby9Ypt89WTdl-12" value="" style="shape=tableRow;horizontal=0;startSize=0;swimlaneHead=0;swimlaneBody=0;fillColor=none;collapsible=0;dropTarget=0;points=[[0,0.5],[1,0.5]];portConstraint=eastwest;top=0;left=0;right=0;bottom=1;" parent="u3Su8oJdby9Ypt89WTdl-11" vertex="1">
          <mxGeometry y="30" width="175" height="20" as="geometry" />
        </mxCell>
        <mxCell id="u3Su8oJdby9Ypt89WTdl-13" value="PK" style="shape=partialRectangle;connectable=0;fillColor=none;top=0;left=0;bottom=0;right=0;fontStyle=1;overflow=hidden;" parent="u3Su8oJdby9Ypt89WTdl-12" vertex="1">
          <mxGeometry width="30" height="20" as="geometry">
            <mxRectangle width="30" height="20" as="alternateBounds" />
          </mxGeometry>
        </mxCell>
        <mxCell id="u3Su8oJdby9Ypt89WTdl-14" value="id" style="shape=partialRectangle;connectable=0;fillColor=none;top=0;left=0;bottom=0;right=0;align=left;spacingLeft=6;fontStyle=5;overflow=hidden;" parent="u3Su8oJdby9Ypt89WTdl-12" vertex="1">
          <mxGeometry x="30" width="145" height="20" as="geometry">
            <mxRectangle width="145" height="20" as="alternateBounds" />
          </mxGeometry>
        </mxCell>
        <mxCell id="milao0v2D2pgSHBRT2AL-42" value="" style="shape=tableRow;horizontal=0;startSize=0;swimlaneHead=0;swimlaneBody=0;fillColor=none;collapsible=0;dropTarget=0;points=[[0,0.5],[1,0.5]];portConstraint=eastwest;top=0;left=0;right=0;bottom=0;" vertex="1" parent="u3Su8oJdby9Ypt89WTdl-11">
          <mxGeometry y="50" width="175" height="30" as="geometry" />
        </mxCell>
        <mxCell id="milao0v2D2pgSHBRT2AL-43" value="FK" style="shape=partialRectangle;connectable=0;fillColor=none;top=0;left=0;bottom=0;right=0;editable=1;overflow=hidden;" vertex="1" parent="milao0v2D2pgSHBRT2AL-42">
          <mxGeometry width="30" height="30" as="geometry">
            <mxRectangle width="30" height="30" as="alternateBounds" />
          </mxGeometry>
        </mxCell>
        <mxCell id="milao0v2D2pgSHBRT2AL-44" value="member" style="shape=partialRectangle;connectable=0;fillColor=none;top=0;left=0;bottom=0;right=0;align=left;spacingLeft=6;overflow=hidden;" vertex="1" parent="milao0v2D2pgSHBRT2AL-42">
          <mxGeometry x="30" width="145" height="30" as="geometry">
            <mxRectangle width="145" height="30" as="alternateBounds" />
          </mxGeometry>
        </mxCell>
        <mxCell id="milao0v2D2pgSHBRT2AL-39" value="" style="shape=tableRow;horizontal=0;startSize=0;swimlaneHead=0;swimlaneBody=0;fillColor=none;collapsible=0;dropTarget=0;points=[[0,0.5],[1,0.5]];portConstraint=eastwest;top=0;left=0;right=0;bottom=0;" vertex="1" parent="u3Su8oJdby9Ypt89WTdl-11">
          <mxGeometry y="80" width="175" height="30" as="geometry" />
        </mxCell>
        <mxCell id="milao0v2D2pgSHBRT2AL-40" value="FK" style="shape=partialRectangle;connectable=0;fillColor=none;top=0;left=0;bottom=0;right=0;editable=1;overflow=hidden;" vertex="1" parent="milao0v2D2pgSHBRT2AL-39">
          <mxGeometry width="30" height="30" as="geometry">
            <mxRectangle width="30" height="30" as="alternateBounds" />
          </mxGeometry>
        </mxCell>
        <mxCell id="milao0v2D2pgSHBRT2AL-41" value="department" style="shape=partialRectangle;connectable=0;fillColor=none;top=0;left=0;bottom=0;right=0;align=left;spacingLeft=6;overflow=hidden;" vertex="1" parent="milao0v2D2pgSHBRT2AL-39">
          <mxGeometry x="30" width="145" height="30" as="geometry">
            <mxRectangle width="145" height="30" as="alternateBounds" />
          </mxGeometry>
        </mxCell>
        <mxCell id="u3Su8oJdby9Ypt89WTdl-15" value="" style="shape=tableRow;horizontal=0;startSize=0;swimlaneHead=0;swimlaneBody=0;fillColor=none;collapsible=0;dropTarget=0;points=[[0,0.5],[1,0.5]];portConstraint=eastwest;top=0;left=0;right=0;bottom=0;" parent="u3Su8oJdby9Ypt89WTdl-11" vertex="1">
          <mxGeometry y="110" width="175" height="30" as="geometry" />
        </mxCell>
        <mxCell id="u3Su8oJdby9Ypt89WTdl-16" value="FK" style="shape=partialRectangle;connectable=0;fillColor=none;top=0;left=0;bottom=0;right=0;editable=1;overflow=hidden;" parent="u3Su8oJdby9Ypt89WTdl-15" vertex="1">
          <mxGeometry width="30" height="30" as="geometry">
            <mxRectangle width="30" height="30" as="alternateBounds" />
          </mxGeometry>
        </mxCell>
        <mxCell id="u3Su8oJdby9Ypt89WTdl-17" value="category" style="shape=partialRectangle;connectable=0;fillColor=none;top=0;left=0;bottom=0;right=0;align=left;spacingLeft=6;overflow=hidden;" parent="u3Su8oJdby9Ypt89WTdl-15" vertex="1">
          <mxGeometry x="30" width="145" height="30" as="geometry">
            <mxRectangle width="145" height="30" as="alternateBounds" />
          </mxGeometry>
        </mxCell>
        <mxCell id="u3Su8oJdby9Ypt89WTdl-18" value="" style="shape=tableRow;horizontal=0;startSize=0;swimlaneHead=0;swimlaneBody=0;fillColor=none;collapsible=0;dropTarget=0;points=[[0,0.5],[1,0.5]];portConstraint=eastwest;top=0;left=0;right=0;bottom=0;" parent="u3Su8oJdby9Ypt89WTdl-11" vertex="1">
          <mxGeometry y="140" width="175" height="30" as="geometry" />
        </mxCell>
        <mxCell id="u3Su8oJdby9Ypt89WTdl-19" value="" style="shape=partialRectangle;connectable=0;fillColor=none;top=0;left=0;bottom=0;right=0;editable=1;overflow=hidden;" parent="u3Su8oJdby9Ypt89WTdl-18" vertex="1">
          <mxGeometry width="30" height="30" as="geometry">
            <mxRectangle width="30" height="30" as="alternateBounds" />
          </mxGeometry>
        </mxCell>
        <mxCell id="u3Su8oJdby9Ypt89WTdl-20" value="use_date" style="shape=partialRectangle;connectable=0;fillColor=none;top=0;left=0;bottom=0;right=0;align=left;spacingLeft=6;overflow=hidden;" parent="u3Su8oJdby9Ypt89WTdl-18" vertex="1">
          <mxGeometry x="30" width="145" height="30" as="geometry">
            <mxRectangle width="145" height="30" as="alternateBounds" />
          </mxGeometry>
        </mxCell>
        <mxCell id="u3Su8oJdby9Ypt89WTdl-56" value="" style="shape=tableRow;horizontal=0;startSize=0;swimlaneHead=0;swimlaneBody=0;fillColor=none;collapsible=0;dropTarget=0;points=[[0,0.5],[1,0.5]];portConstraint=eastwest;top=0;left=0;right=0;bottom=0;" parent="u3Su8oJdby9Ypt89WTdl-11" vertex="1">
          <mxGeometry y="170" width="175" height="30" as="geometry" />
        </mxCell>
        <mxCell id="u3Su8oJdby9Ypt89WTdl-57" value="" style="shape=partialRectangle;connectable=0;fillColor=none;top=0;left=0;bottom=0;right=0;editable=1;overflow=hidden;" parent="u3Su8oJdby9Ypt89WTdl-56" vertex="1">
          <mxGeometry width="30" height="30" as="geometry">
            <mxRectangle width="30" height="30" as="alternateBounds" />
          </mxGeometry>
        </mxCell>
        <mxCell id="u3Su8oJdby9Ypt89WTdl-58" value="category" style="shape=partialRectangle;connectable=0;fillColor=none;top=0;left=0;bottom=0;right=0;align=left;spacingLeft=6;overflow=hidden;" parent="u3Su8oJdby9Ypt89WTdl-56" vertex="1">
          <mxGeometry x="30" width="145" height="30" as="geometry">
            <mxRectangle width="145" height="30" as="alternateBounds" />
          </mxGeometry>
        </mxCell>
        <mxCell id="u3Su8oJdby9Ypt89WTdl-53" value="" style="shape=tableRow;horizontal=0;startSize=0;swimlaneHead=0;swimlaneBody=0;fillColor=none;collapsible=0;dropTarget=0;points=[[0,0.5],[1,0.5]];portConstraint=eastwest;top=0;left=0;right=0;bottom=0;" parent="u3Su8oJdby9Ypt89WTdl-11" vertex="1">
          <mxGeometry y="200" width="175" height="30" as="geometry" />
        </mxCell>
        <mxCell id="u3Su8oJdby9Ypt89WTdl-54" value="" style="shape=partialRectangle;connectable=0;fillColor=none;top=0;left=0;bottom=0;right=0;editable=1;overflow=hidden;" parent="u3Su8oJdby9Ypt89WTdl-53" vertex="1">
          <mxGeometry width="30" height="30" as="geometry">
            <mxRectangle width="30" height="30" as="alternateBounds" />
          </mxGeometry>
        </mxCell>
        <mxCell id="u3Su8oJdby9Ypt89WTdl-55" value="in_or_out" style="shape=partialRectangle;connectable=0;fillColor=none;top=0;left=0;bottom=0;right=0;align=left;spacingLeft=6;overflow=hidden;" parent="u3Su8oJdby9Ypt89WTdl-53" vertex="1">
          <mxGeometry x="30" width="145" height="30" as="geometry">
            <mxRectangle width="145" height="30" as="alternateBounds" />
          </mxGeometry>
        </mxCell>
        <mxCell id="u3Su8oJdby9Ypt89WTdl-21" value="" style="shape=tableRow;horizontal=0;startSize=0;swimlaneHead=0;swimlaneBody=0;fillColor=none;collapsible=0;dropTarget=0;points=[[0,0.5],[1,0.5]];portConstraint=eastwest;top=0;left=0;right=0;bottom=0;" parent="u3Su8oJdby9Ypt89WTdl-11" vertex="1">
          <mxGeometry y="230" width="175" height="30" as="geometry" />
        </mxCell>
        <mxCell id="u3Su8oJdby9Ypt89WTdl-22" value="" style="shape=partialRectangle;connectable=0;fillColor=none;top=0;left=0;bottom=0;right=0;editable=1;overflow=hidden;" parent="u3Su8oJdby9Ypt89WTdl-21" vertex="1">
          <mxGeometry width="30" height="30" as="geometry">
            <mxRectangle width="30" height="30" as="alternateBounds" />
          </mxGeometry>
        </mxCell>
        <mxCell id="u3Su8oJdby9Ypt89WTdl-23" value="amount_of_money" style="shape=partialRectangle;connectable=0;fillColor=none;top=0;left=0;bottom=0;right=0;align=left;spacingLeft=6;overflow=hidden;" parent="u3Su8oJdby9Ypt89WTdl-21" vertex="1">
          <mxGeometry x="30" width="145" height="30" as="geometry">
            <mxRectangle width="145" height="30" as="alternateBounds" />
          </mxGeometry>
        </mxCell>
        <mxCell id="u3Su8oJdby9Ypt89WTdl-70" value="" style="shape=tableRow;horizontal=0;startSize=0;swimlaneHead=0;swimlaneBody=0;fillColor=none;collapsible=0;dropTarget=0;points=[[0,0.5],[1,0.5]];portConstraint=eastwest;top=0;left=0;right=0;bottom=0;" parent="u3Su8oJdby9Ypt89WTdl-11" vertex="1">
          <mxGeometry y="260" width="175" height="30" as="geometry" />
        </mxCell>
        <mxCell id="u3Su8oJdby9Ypt89WTdl-71" value="" style="shape=partialRectangle;connectable=0;fillColor=none;top=0;left=0;bottom=0;right=0;editable=1;overflow=hidden;" parent="u3Su8oJdby9Ypt89WTdl-70" vertex="1">
          <mxGeometry width="30" height="30" as="geometry">
            <mxRectangle width="30" height="30" as="alternateBounds" />
          </mxGeometry>
        </mxCell>
        <mxCell id="u3Su8oJdby9Ypt89WTdl-72" value="memo" style="shape=partialRectangle;connectable=0;fillColor=none;top=0;left=0;bottom=0;right=0;align=left;spacingLeft=6;overflow=hidden;" parent="u3Su8oJdby9Ypt89WTdl-70" vertex="1">
          <mxGeometry x="30" width="145" height="30" as="geometry">
            <mxRectangle width="145" height="30" as="alternateBounds" />
          </mxGeometry>
        </mxCell>
        <mxCell id="u3Su8oJdby9Ypt89WTdl-76" value="" style="shape=tableRow;horizontal=0;startSize=0;swimlaneHead=0;swimlaneBody=0;fillColor=none;collapsible=0;dropTarget=0;points=[[0,0.5],[1,0.5]];portConstraint=eastwest;top=0;left=0;right=0;bottom=0;" parent="u3Su8oJdby9Ypt89WTdl-11" vertex="1">
          <mxGeometry y="290" width="175" height="30" as="geometry" />
        </mxCell>
        <mxCell id="u3Su8oJdby9Ypt89WTdl-77" value="" style="shape=partialRectangle;connectable=0;fillColor=none;top=0;left=0;bottom=0;right=0;editable=1;overflow=hidden;" parent="u3Su8oJdby9Ypt89WTdl-76" vertex="1">
          <mxGeometry width="30" height="30" as="geometry">
            <mxRectangle width="30" height="30" as="alternateBounds" />
          </mxGeometry>
        </mxCell>
        <mxCell id="u3Su8oJdby9Ypt89WTdl-78" value="created_at" style="shape=partialRectangle;connectable=0;fillColor=none;top=0;left=0;bottom=0;right=0;align=left;spacingLeft=6;overflow=hidden;" parent="u3Su8oJdby9Ypt89WTdl-76" vertex="1">
          <mxGeometry x="30" width="145" height="30" as="geometry">
            <mxRectangle width="145" height="30" as="alternateBounds" />
          </mxGeometry>
        </mxCell>
        <mxCell id="u3Su8oJdby9Ypt89WTdl-79" value="" style="shape=tableRow;horizontal=0;startSize=0;swimlaneHead=0;swimlaneBody=0;fillColor=none;collapsible=0;dropTarget=0;points=[[0,0.5],[1,0.5]];portConstraint=eastwest;top=0;left=0;right=0;bottom=0;" parent="u3Su8oJdby9Ypt89WTdl-11" vertex="1">
          <mxGeometry y="320" width="175" height="30" as="geometry" />
        </mxCell>
        <mxCell id="u3Su8oJdby9Ypt89WTdl-80" value="" style="shape=partialRectangle;connectable=0;fillColor=none;top=0;left=0;bottom=0;right=0;editable=1;overflow=hidden;" parent="u3Su8oJdby9Ypt89WTdl-79" vertex="1">
          <mxGeometry width="30" height="30" as="geometry">
            <mxRectangle width="30" height="30" as="alternateBounds" />
          </mxGeometry>
        </mxCell>
        <mxCell id="u3Su8oJdby9Ypt89WTdl-81" value="updated_at" style="shape=partialRectangle;connectable=0;fillColor=none;top=0;left=0;bottom=0;right=0;align=left;spacingLeft=6;overflow=hidden;" parent="u3Su8oJdby9Ypt89WTdl-79" vertex="1">
          <mxGeometry x="30" width="145" height="30" as="geometry">
            <mxRectangle width="145" height="30" as="alternateBounds" />
          </mxGeometry>
        </mxCell>
        <mxCell id="u3Su8oJdby9Ypt89WTdl-119" style="edgeStyle=orthogonalEdgeStyle;rounded=0;orthogonalLoop=1;jettySize=auto;html=1;entryX=0.25;entryY=0;entryDx=0;entryDy=0;startArrow=ERone;startFill=0;endArrow=ERoneToMany;endFill=0;" parent="1" source="u3Su8oJdby9Ypt89WTdl-83" target="u3Su8oJdby9Ypt89WTdl-11" edge="1">
          <mxGeometry relative="1" as="geometry" />
        </mxCell>
        <mxCell id="u3Su8oJdby9Ypt89WTdl-83" value="member" style="shape=table;startSize=30;container=1;collapsible=1;childLayout=tableLayout;fixedRows=1;rowLines=0;fontStyle=1;align=center;resizeLast=1;" parent="1" vertex="1">
          <mxGeometry x="91" y="150" width="155" height="300" as="geometry" />
        </mxCell>
        <mxCell id="u3Su8oJdby9Ypt89WTdl-84" value="" style="shape=tableRow;horizontal=0;startSize=0;swimlaneHead=0;swimlaneBody=0;fillColor=none;collapsible=0;dropTarget=0;points=[[0,0.5],[1,0.5]];portConstraint=eastwest;top=0;left=0;right=0;bottom=1;" parent="u3Su8oJdby9Ypt89WTdl-83" vertex="1">
          <mxGeometry y="30" width="155" height="30" as="geometry" />
        </mxCell>
        <mxCell id="u3Su8oJdby9Ypt89WTdl-85" value="PK" style="shape=partialRectangle;connectable=0;fillColor=none;top=0;left=0;bottom=0;right=0;fontStyle=1;overflow=hidden;" parent="u3Su8oJdby9Ypt89WTdl-84" vertex="1">
          <mxGeometry width="30" height="30" as="geometry">
            <mxRectangle width="30" height="30" as="alternateBounds" />
          </mxGeometry>
        </mxCell>
        <mxCell id="u3Su8oJdby9Ypt89WTdl-86" value="id" style="shape=partialRectangle;connectable=0;fillColor=none;top=0;left=0;bottom=0;right=0;align=left;spacingLeft=6;fontStyle=5;overflow=hidden;" parent="u3Su8oJdby9Ypt89WTdl-84" vertex="1">
          <mxGeometry x="30" width="125" height="30" as="geometry">
            <mxRectangle width="125" height="30" as="alternateBounds" />
          </mxGeometry>
        </mxCell>
        <mxCell id="u3Su8oJdby9Ypt89WTdl-87" value="" style="shape=tableRow;horizontal=0;startSize=0;swimlaneHead=0;swimlaneBody=0;fillColor=none;collapsible=0;dropTarget=0;points=[[0,0.5],[1,0.5]];portConstraint=eastwest;top=0;left=0;right=0;bottom=0;" parent="u3Su8oJdby9Ypt89WTdl-83" vertex="1">
          <mxGeometry y="60" width="155" height="30" as="geometry" />
        </mxCell>
        <mxCell id="u3Su8oJdby9Ypt89WTdl-88" value="FK" style="shape=partialRectangle;connectable=0;fillColor=none;top=0;left=0;bottom=0;right=0;editable=1;overflow=hidden;" parent="u3Su8oJdby9Ypt89WTdl-87" vertex="1">
          <mxGeometry width="30" height="30" as="geometry">
            <mxRectangle width="30" height="30" as="alternateBounds" />
          </mxGeometry>
        </mxCell>
        <mxCell id="u3Su8oJdby9Ypt89WTdl-89" value="department" style="shape=partialRectangle;connectable=0;fillColor=none;top=0;left=0;bottom=0;right=0;align=left;spacingLeft=6;overflow=hidden;" parent="u3Su8oJdby9Ypt89WTdl-87" vertex="1">
          <mxGeometry x="30" width="125" height="30" as="geometry">
            <mxRectangle width="125" height="30" as="alternateBounds" />
          </mxGeometry>
        </mxCell>
        <mxCell id="milao0v2D2pgSHBRT2AL-4" value="" style="shape=tableRow;horizontal=0;startSize=0;swimlaneHead=0;swimlaneBody=0;fillColor=none;collapsible=0;dropTarget=0;points=[[0,0.5],[1,0.5]];portConstraint=eastwest;top=0;left=0;right=0;bottom=0;" vertex="1" parent="u3Su8oJdby9Ypt89WTdl-83">
          <mxGeometry y="90" width="155" height="30" as="geometry" />
        </mxCell>
        <mxCell id="milao0v2D2pgSHBRT2AL-5" value="FK" style="shape=partialRectangle;connectable=0;fillColor=none;top=0;left=0;bottom=0;right=0;editable=1;overflow=hidden;" vertex="1" parent="milao0v2D2pgSHBRT2AL-4">
          <mxGeometry width="30" height="30" as="geometry">
            <mxRectangle width="30" height="30" as="alternateBounds" />
          </mxGeometry>
        </mxCell>
        <mxCell id="milao0v2D2pgSHBRT2AL-6" value="histories" style="shape=partialRectangle;connectable=0;fillColor=none;top=0;left=0;bottom=0;right=0;align=left;spacingLeft=6;overflow=hidden;" vertex="1" parent="milao0v2D2pgSHBRT2AL-4">
          <mxGeometry x="30" width="125" height="30" as="geometry">
            <mxRectangle width="125" height="30" as="alternateBounds" />
          </mxGeometry>
        </mxCell>
        <mxCell id="u3Su8oJdby9Ypt89WTdl-136" value="" style="shape=tableRow;horizontal=0;startSize=0;swimlaneHead=0;swimlaneBody=0;fillColor=none;collapsible=0;dropTarget=0;points=[[0,0.5],[1,0.5]];portConstraint=eastwest;top=0;left=0;right=0;bottom=0;" parent="u3Su8oJdby9Ypt89WTdl-83" vertex="1">
          <mxGeometry y="120" width="155" height="30" as="geometry" />
        </mxCell>
        <mxCell id="u3Su8oJdby9Ypt89WTdl-137" value="" style="shape=partialRectangle;connectable=0;fillColor=none;top=0;left=0;bottom=0;right=0;editable=1;overflow=hidden;" parent="u3Su8oJdby9Ypt89WTdl-136" vertex="1">
          <mxGeometry width="30" height="30" as="geometry">
            <mxRectangle width="30" height="30" as="alternateBounds" />
          </mxGeometry>
        </mxCell>
        <mxCell id="u3Su8oJdby9Ypt89WTdl-138" value="email" style="shape=partialRectangle;connectable=0;fillColor=none;top=0;left=0;bottom=0;right=0;align=left;spacingLeft=6;overflow=hidden;" parent="u3Su8oJdby9Ypt89WTdl-136" vertex="1">
          <mxGeometry x="30" width="125" height="30" as="geometry">
            <mxRectangle width="125" height="30" as="alternateBounds" />
          </mxGeometry>
        </mxCell>
        <mxCell id="u3Su8oJdby9Ypt89WTdl-90" value="" style="shape=tableRow;horizontal=0;startSize=0;swimlaneHead=0;swimlaneBody=0;fillColor=none;collapsible=0;dropTarget=0;points=[[0,0.5],[1,0.5]];portConstraint=eastwest;top=0;left=0;right=0;bottom=0;" parent="u3Su8oJdby9Ypt89WTdl-83" vertex="1">
          <mxGeometry y="150" width="155" height="30" as="geometry" />
        </mxCell>
        <mxCell id="u3Su8oJdby9Ypt89WTdl-91" value="" style="shape=partialRectangle;connectable=0;fillColor=none;top=0;left=0;bottom=0;right=0;editable=1;overflow=hidden;" parent="u3Su8oJdby9Ypt89WTdl-90" vertex="1">
          <mxGeometry width="30" height="30" as="geometry">
            <mxRectangle width="30" height="30" as="alternateBounds" />
          </mxGeometry>
        </mxCell>
        <mxCell id="u3Su8oJdby9Ypt89WTdl-92" value="password" style="shape=partialRectangle;connectable=0;fillColor=none;top=0;left=0;bottom=0;right=0;align=left;spacingLeft=6;overflow=hidden;" parent="u3Su8oJdby9Ypt89WTdl-90" vertex="1">
          <mxGeometry x="30" width="125" height="30" as="geometry">
            <mxRectangle width="125" height="30" as="alternateBounds" />
          </mxGeometry>
        </mxCell>
        <mxCell id="u3Su8oJdby9Ypt89WTdl-93" value="" style="shape=tableRow;horizontal=0;startSize=0;swimlaneHead=0;swimlaneBody=0;fillColor=none;collapsible=0;dropTarget=0;points=[[0,0.5],[1,0.5]];portConstraint=eastwest;top=0;left=0;right=0;bottom=0;" parent="u3Su8oJdby9Ypt89WTdl-83" vertex="1">
          <mxGeometry y="180" width="155" height="30" as="geometry" />
        </mxCell>
        <mxCell id="u3Su8oJdby9Ypt89WTdl-94" value="" style="shape=partialRectangle;connectable=0;fillColor=none;top=0;left=0;bottom=0;right=0;editable=1;overflow=hidden;" parent="u3Su8oJdby9Ypt89WTdl-93" vertex="1">
          <mxGeometry width="30" height="30" as="geometry">
            <mxRectangle width="30" height="30" as="alternateBounds" />
          </mxGeometry>
        </mxCell>
        <mxCell id="u3Su8oJdby9Ypt89WTdl-95" value="name" style="shape=partialRectangle;connectable=0;fillColor=none;top=0;left=0;bottom=0;right=0;align=left;spacingLeft=6;overflow=hidden;" parent="u3Su8oJdby9Ypt89WTdl-93" vertex="1">
          <mxGeometry x="30" width="125" height="30" as="geometry">
            <mxRectangle width="125" height="30" as="alternateBounds" />
          </mxGeometry>
        </mxCell>
        <mxCell id="u3Su8oJdby9Ypt89WTdl-96" value="" style="shape=tableRow;horizontal=0;startSize=0;swimlaneHead=0;swimlaneBody=0;fillColor=none;collapsible=0;dropTarget=0;points=[[0,0.5],[1,0.5]];portConstraint=eastwest;top=0;left=0;right=0;bottom=0;" parent="u3Su8oJdby9Ypt89WTdl-83" vertex="1">
          <mxGeometry y="210" width="155" height="30" as="geometry" />
        </mxCell>
        <mxCell id="u3Su8oJdby9Ypt89WTdl-97" value="" style="shape=partialRectangle;connectable=0;fillColor=none;top=0;left=0;bottom=0;right=0;editable=1;overflow=hidden;" parent="u3Su8oJdby9Ypt89WTdl-96" vertex="1">
          <mxGeometry width="30" height="30" as="geometry">
            <mxRectangle width="30" height="30" as="alternateBounds" />
          </mxGeometry>
        </mxCell>
        <mxCell id="u3Su8oJdby9Ypt89WTdl-98" value="birth" style="shape=partialRectangle;connectable=0;fillColor=none;top=0;left=0;bottom=0;right=0;align=left;spacingLeft=6;overflow=hidden;" parent="u3Su8oJdby9Ypt89WTdl-96" vertex="1">
          <mxGeometry x="30" width="125" height="30" as="geometry">
            <mxRectangle width="125" height="30" as="alternateBounds" />
          </mxGeometry>
        </mxCell>
        <mxCell id="u3Su8oJdby9Ypt89WTdl-99" value="" style="shape=tableRow;horizontal=0;startSize=0;swimlaneHead=0;swimlaneBody=0;fillColor=none;collapsible=0;dropTarget=0;points=[[0,0.5],[1,0.5]];portConstraint=eastwest;top=0;left=0;right=0;bottom=0;" parent="u3Su8oJdby9Ypt89WTdl-83" vertex="1">
          <mxGeometry y="240" width="155" height="30" as="geometry" />
        </mxCell>
        <mxCell id="u3Su8oJdby9Ypt89WTdl-100" value="" style="shape=partialRectangle;connectable=0;fillColor=none;top=0;left=0;bottom=0;right=0;editable=1;overflow=hidden;" parent="u3Su8oJdby9Ypt89WTdl-99" vertex="1">
          <mxGeometry width="30" height="30" as="geometry">
            <mxRectangle width="30" height="30" as="alternateBounds" />
          </mxGeometry>
        </mxCell>
        <mxCell id="u3Su8oJdby9Ypt89WTdl-101" value="gender" style="shape=partialRectangle;connectable=0;fillColor=none;top=0;left=0;bottom=0;right=0;align=left;spacingLeft=6;overflow=hidden;" parent="u3Su8oJdby9Ypt89WTdl-99" vertex="1">
          <mxGeometry x="30" width="125" height="30" as="geometry">
            <mxRectangle width="125" height="30" as="alternateBounds" />
          </mxGeometry>
        </mxCell>
        <mxCell id="u3Su8oJdby9Ypt89WTdl-102" value="" style="shape=tableRow;horizontal=0;startSize=0;swimlaneHead=0;swimlaneBody=0;fillColor=none;collapsible=0;dropTarget=0;points=[[0,0.5],[1,0.5]];portConstraint=eastwest;top=0;left=0;right=0;bottom=0;" parent="u3Su8oJdby9Ypt89WTdl-83" vertex="1">
          <mxGeometry y="270" width="155" height="30" as="geometry" />
        </mxCell>
        <mxCell id="u3Su8oJdby9Ypt89WTdl-103" value="" style="shape=partialRectangle;connectable=0;fillColor=none;top=0;left=0;bottom=0;right=0;editable=1;overflow=hidden;" parent="u3Su8oJdby9Ypt89WTdl-102" vertex="1">
          <mxGeometry width="30" height="30" as="geometry">
            <mxRectangle width="30" height="30" as="alternateBounds" />
          </mxGeometry>
        </mxCell>
        <mxCell id="u3Su8oJdby9Ypt89WTdl-104" value="joined_at" style="shape=partialRectangle;connectable=0;fillColor=none;top=0;left=0;bottom=0;right=0;align=left;spacingLeft=6;overflow=hidden;" parent="u3Su8oJdby9Ypt89WTdl-102" vertex="1">
          <mxGeometry x="30" width="125" height="30" as="geometry">
            <mxRectangle width="125" height="30" as="alternateBounds" />
          </mxGeometry>
        </mxCell>
        <mxCell id="u3Su8oJdby9Ypt89WTdl-158" style="edgeStyle=orthogonalEdgeStyle;rounded=0;orthogonalLoop=1;jettySize=auto;html=1;startArrow=ERzeroToMany;startFill=0;endArrow=ERone;endFill=0;" parent="1" edge="1">
          <mxGeometry relative="1" as="geometry">
            <mxPoint x="650" y="382" as="targetPoint" />
            <mxPoint x="650" y="629" as="sourcePoint" />
            <Array as="points">
              <mxPoint x="650" y="441" />
              <mxPoint x="650" y="441" />
            </Array>
          </mxGeometry>
        </mxCell>
        <mxCell id="u3Su8oJdby9Ypt89WTdl-120" value="category" style="shape=table;startSize=30;container=1;collapsible=1;childLayout=tableLayout;fixedRows=1;rowLines=0;fontStyle=1;align=center;resizeLast=1;" parent="1" vertex="1">
          <mxGeometry x="531" y="630" width="180" height="240" as="geometry" />
        </mxCell>
        <mxCell id="u3Su8oJdby9Ypt89WTdl-121" value="" style="shape=tableRow;horizontal=0;startSize=0;swimlaneHead=0;swimlaneBody=0;fillColor=none;collapsible=0;dropTarget=0;points=[[0,0.5],[1,0.5]];portConstraint=eastwest;top=0;left=0;right=0;bottom=1;" parent="u3Su8oJdby9Ypt89WTdl-120" vertex="1">
          <mxGeometry y="30" width="180" height="30" as="geometry" />
        </mxCell>
        <mxCell id="u3Su8oJdby9Ypt89WTdl-122" value="PK" style="shape=partialRectangle;connectable=0;fillColor=none;top=0;left=0;bottom=0;right=0;fontStyle=1;overflow=hidden;" parent="u3Su8oJdby9Ypt89WTdl-121" vertex="1">
          <mxGeometry width="30" height="30" as="geometry">
            <mxRectangle width="30" height="30" as="alternateBounds" />
          </mxGeometry>
        </mxCell>
        <mxCell id="u3Su8oJdby9Ypt89WTdl-123" value="id" style="shape=partialRectangle;connectable=0;fillColor=none;top=0;left=0;bottom=0;right=0;align=left;spacingLeft=6;fontStyle=5;overflow=hidden;" parent="u3Su8oJdby9Ypt89WTdl-121" vertex="1">
          <mxGeometry x="30" width="150" height="30" as="geometry">
            <mxRectangle width="150" height="30" as="alternateBounds" />
          </mxGeometry>
        </mxCell>
        <mxCell id="u3Su8oJdby9Ypt89WTdl-124" value="" style="shape=tableRow;horizontal=0;startSize=0;swimlaneHead=0;swimlaneBody=0;fillColor=none;collapsible=0;dropTarget=0;points=[[0,0.5],[1,0.5]];portConstraint=eastwest;top=0;left=0;right=0;bottom=0;" parent="u3Su8oJdby9Ypt89WTdl-120" vertex="1">
          <mxGeometry y="60" width="180" height="30" as="geometry" />
        </mxCell>
        <mxCell id="u3Su8oJdby9Ypt89WTdl-125" value="" style="shape=partialRectangle;connectable=0;fillColor=none;top=0;left=0;bottom=0;right=0;editable=1;overflow=hidden;" parent="u3Su8oJdby9Ypt89WTdl-124" vertex="1">
          <mxGeometry width="30" height="30" as="geometry">
            <mxRectangle width="30" height="30" as="alternateBounds" />
          </mxGeometry>
        </mxCell>
        <mxCell id="u3Su8oJdby9Ypt89WTdl-126" value="histories" style="shape=partialRectangle;connectable=0;fillColor=none;top=0;left=0;bottom=0;right=0;align=left;spacingLeft=6;overflow=hidden;" parent="u3Su8oJdby9Ypt89WTdl-124" vertex="1">
          <mxGeometry x="30" width="150" height="30" as="geometry">
            <mxRectangle width="150" height="30" as="alternateBounds" />
          </mxGeometry>
        </mxCell>
        <mxCell id="milao0v2D2pgSHBRT2AL-54" value="" style="shape=tableRow;horizontal=0;startSize=0;swimlaneHead=0;swimlaneBody=0;fillColor=none;collapsible=0;dropTarget=0;points=[[0,0.5],[1,0.5]];portConstraint=eastwest;top=0;left=0;right=0;bottom=0;" vertex="1" parent="u3Su8oJdby9Ypt89WTdl-120">
          <mxGeometry y="90" width="180" height="30" as="geometry" />
        </mxCell>
        <mxCell id="milao0v2D2pgSHBRT2AL-55" value="" style="shape=partialRectangle;connectable=0;fillColor=none;top=0;left=0;bottom=0;right=0;editable=1;overflow=hidden;" vertex="1" parent="milao0v2D2pgSHBRT2AL-54">
          <mxGeometry width="30" height="30" as="geometry">
            <mxRectangle width="30" height="30" as="alternateBounds" />
          </mxGeometry>
        </mxCell>
        <mxCell id="milao0v2D2pgSHBRT2AL-56" value="department" style="shape=partialRectangle;connectable=0;fillColor=none;top=0;left=0;bottom=0;right=0;align=left;spacingLeft=6;overflow=hidden;" vertex="1" parent="milao0v2D2pgSHBRT2AL-54">
          <mxGeometry x="30" width="150" height="30" as="geometry">
            <mxRectangle width="150" height="30" as="alternateBounds" />
          </mxGeometry>
        </mxCell>
        <mxCell id="milao0v2D2pgSHBRT2AL-51" value="" style="shape=tableRow;horizontal=0;startSize=0;swimlaneHead=0;swimlaneBody=0;fillColor=none;collapsible=0;dropTarget=0;points=[[0,0.5],[1,0.5]];portConstraint=eastwest;top=0;left=0;right=0;bottom=0;" vertex="1" parent="u3Su8oJdby9Ypt89WTdl-120">
          <mxGeometry y="120" width="180" height="30" as="geometry" />
        </mxCell>
        <mxCell id="milao0v2D2pgSHBRT2AL-52" value="" style="shape=partialRectangle;connectable=0;fillColor=none;top=0;left=0;bottom=0;right=0;editable=1;overflow=hidden;" vertex="1" parent="milao0v2D2pgSHBRT2AL-51">
          <mxGeometry width="30" height="30" as="geometry">
            <mxRectangle width="30" height="30" as="alternateBounds" />
          </mxGeometry>
        </mxCell>
        <mxCell id="milao0v2D2pgSHBRT2AL-53" value="title" style="shape=partialRectangle;connectable=0;fillColor=none;top=0;left=0;bottom=0;right=0;align=left;spacingLeft=6;overflow=hidden;" vertex="1" parent="milao0v2D2pgSHBRT2AL-51">
          <mxGeometry x="30" width="150" height="30" as="geometry">
            <mxRectangle width="150" height="30" as="alternateBounds" />
          </mxGeometry>
        </mxCell>
        <mxCell id="u3Su8oJdby9Ypt89WTdl-133" value="" style="shape=tableRow;horizontal=0;startSize=0;swimlaneHead=0;swimlaneBody=0;fillColor=none;collapsible=0;dropTarget=0;points=[[0,0.5],[1,0.5]];portConstraint=eastwest;top=0;left=0;right=0;bottom=0;" parent="u3Su8oJdby9Ypt89WTdl-120" vertex="1">
          <mxGeometry y="150" width="180" height="30" as="geometry" />
        </mxCell>
        <mxCell id="u3Su8oJdby9Ypt89WTdl-134" value="" style="shape=partialRectangle;connectable=0;fillColor=none;top=0;left=0;bottom=0;right=0;editable=1;overflow=hidden;" parent="u3Su8oJdby9Ypt89WTdl-133" vertex="1">
          <mxGeometry width="30" height="30" as="geometry">
            <mxRectangle width="30" height="30" as="alternateBounds" />
          </mxGeometry>
        </mxCell>
        <mxCell id="u3Su8oJdby9Ypt89WTdl-135" value="title" style="shape=partialRectangle;connectable=0;fillColor=none;top=0;left=0;bottom=0;right=0;align=left;spacingLeft=6;overflow=hidden;" parent="u3Su8oJdby9Ypt89WTdl-133" vertex="1">
          <mxGeometry x="30" width="150" height="30" as="geometry">
            <mxRectangle width="150" height="30" as="alternateBounds" />
          </mxGeometry>
        </mxCell>
        <mxCell id="u3Su8oJdby9Ypt89WTdl-127" value="" style="shape=tableRow;horizontal=0;startSize=0;swimlaneHead=0;swimlaneBody=0;fillColor=none;collapsible=0;dropTarget=0;points=[[0,0.5],[1,0.5]];portConstraint=eastwest;top=0;left=0;right=0;bottom=0;" parent="u3Su8oJdby9Ypt89WTdl-120" vertex="1">
          <mxGeometry y="180" width="180" height="30" as="geometry" />
        </mxCell>
        <mxCell id="u3Su8oJdby9Ypt89WTdl-128" value="" style="shape=partialRectangle;connectable=0;fillColor=none;top=0;left=0;bottom=0;right=0;editable=1;overflow=hidden;" parent="u3Su8oJdby9Ypt89WTdl-127" vertex="1">
          <mxGeometry width="30" height="30" as="geometry">
            <mxRectangle width="30" height="30" as="alternateBounds" />
          </mxGeometry>
        </mxCell>
        <mxCell id="u3Su8oJdby9Ypt89WTdl-129" value="description" style="shape=partialRectangle;connectable=0;fillColor=none;top=0;left=0;bottom=0;right=0;align=left;spacingLeft=6;overflow=hidden;" parent="u3Su8oJdby9Ypt89WTdl-127" vertex="1">
          <mxGeometry x="30" width="150" height="30" as="geometry">
            <mxRectangle width="150" height="30" as="alternateBounds" />
          </mxGeometry>
        </mxCell>
        <mxCell id="u3Su8oJdby9Ypt89WTdl-130" value="" style="shape=tableRow;horizontal=0;startSize=0;swimlaneHead=0;swimlaneBody=0;fillColor=none;collapsible=0;dropTarget=0;points=[[0,0.5],[1,0.5]];portConstraint=eastwest;top=0;left=0;right=0;bottom=0;" parent="u3Su8oJdby9Ypt89WTdl-120" vertex="1">
          <mxGeometry y="210" width="180" height="30" as="geometry" />
        </mxCell>
        <mxCell id="u3Su8oJdby9Ypt89WTdl-131" value="" style="shape=partialRectangle;connectable=0;fillColor=none;top=0;left=0;bottom=0;right=0;editable=1;overflow=hidden;" parent="u3Su8oJdby9Ypt89WTdl-130" vertex="1">
          <mxGeometry width="30" height="30" as="geometry">
            <mxRectangle width="30" height="30" as="alternateBounds" />
          </mxGeometry>
        </mxCell>
        <mxCell id="u3Su8oJdby9Ypt89WTdl-132" value="isPossible" style="shape=partialRectangle;connectable=0;fillColor=none;top=0;left=0;bottom=0;right=0;align=left;spacingLeft=6;overflow=hidden;" parent="u3Su8oJdby9Ypt89WTdl-130" vertex="1">
          <mxGeometry x="30" width="150" height="30" as="geometry">
            <mxRectangle width="150" height="30" as="alternateBounds" />
          </mxGeometry>
        </mxCell>
        <mxCell id="u3Su8oJdby9Ypt89WTdl-139" value="department" style="shape=table;startSize=30;container=1;collapsible=1;childLayout=tableLayout;fixedRows=1;rowLines=0;fontStyle=1;align=center;resizeLast=1;" parent="1" vertex="1">
          <mxGeometry x="574" y="221" width="180" height="160" as="geometry" />
        </mxCell>
        <mxCell id="u3Su8oJdby9Ypt89WTdl-140" value="" style="shape=tableRow;horizontal=0;startSize=0;swimlaneHead=0;swimlaneBody=0;fillColor=none;collapsible=0;dropTarget=0;points=[[0,0.5],[1,0.5]];portConstraint=eastwest;top=0;left=0;right=0;bottom=1;" parent="u3Su8oJdby9Ypt89WTdl-139" vertex="1">
          <mxGeometry y="30" width="180" height="30" as="geometry" />
        </mxCell>
        <mxCell id="u3Su8oJdby9Ypt89WTdl-141" value="PK" style="shape=partialRectangle;connectable=0;fillColor=none;top=0;left=0;bottom=0;right=0;fontStyle=1;overflow=hidden;" parent="u3Su8oJdby9Ypt89WTdl-140" vertex="1">
          <mxGeometry width="30" height="30" as="geometry">
            <mxRectangle width="30" height="30" as="alternateBounds" />
          </mxGeometry>
        </mxCell>
        <mxCell id="u3Su8oJdby9Ypt89WTdl-142" value="id" style="shape=partialRectangle;connectable=0;fillColor=none;top=0;left=0;bottom=0;right=0;align=left;spacingLeft=6;fontStyle=5;overflow=hidden;" parent="u3Su8oJdby9Ypt89WTdl-140" vertex="1">
          <mxGeometry x="30" width="150" height="30" as="geometry">
            <mxRectangle width="150" height="30" as="alternateBounds" />
          </mxGeometry>
        </mxCell>
        <mxCell id="u3Su8oJdby9Ypt89WTdl-143" value="" style="shape=tableRow;horizontal=0;startSize=0;swimlaneHead=0;swimlaneBody=0;fillColor=none;collapsible=0;dropTarget=0;points=[[0,0.5],[1,0.5]];portConstraint=eastwest;top=0;left=0;right=0;bottom=0;" parent="u3Su8oJdby9Ypt89WTdl-139" vertex="1">
          <mxGeometry y="60" width="180" height="20" as="geometry" />
        </mxCell>
        <mxCell id="u3Su8oJdby9Ypt89WTdl-144" value="" style="shape=partialRectangle;connectable=0;fillColor=none;top=0;left=0;bottom=0;right=0;editable=1;overflow=hidden;" parent="u3Su8oJdby9Ypt89WTdl-143" vertex="1">
          <mxGeometry width="30" height="20" as="geometry">
            <mxRectangle width="30" height="20" as="alternateBounds" />
          </mxGeometry>
        </mxCell>
        <mxCell id="u3Su8oJdby9Ypt89WTdl-145" value="name" style="shape=partialRectangle;connectable=0;fillColor=none;top=0;left=0;bottom=0;right=0;align=left;spacingLeft=6;overflow=hidden;" parent="u3Su8oJdby9Ypt89WTdl-143" vertex="1">
          <mxGeometry x="30" width="150" height="20" as="geometry">
            <mxRectangle width="150" height="20" as="alternateBounds" />
          </mxGeometry>
        </mxCell>
        <mxCell id="u3Su8oJdby9Ypt89WTdl-146" value="" style="shape=tableRow;horizontal=0;startSize=0;swimlaneHead=0;swimlaneBody=0;fillColor=none;collapsible=0;dropTarget=0;points=[[0,0.5],[1,0.5]];portConstraint=eastwest;top=0;left=0;right=0;bottom=0;" parent="u3Su8oJdby9Ypt89WTdl-139" vertex="1">
          <mxGeometry y="80" width="180" height="20" as="geometry" />
        </mxCell>
        <mxCell id="u3Su8oJdby9Ypt89WTdl-147" value="FK" style="shape=partialRectangle;connectable=0;fillColor=none;top=0;left=0;bottom=0;right=0;editable=1;overflow=hidden;" parent="u3Su8oJdby9Ypt89WTdl-146" vertex="1">
          <mxGeometry width="30" height="20" as="geometry">
            <mxRectangle width="30" height="20" as="alternateBounds" />
          </mxGeometry>
        </mxCell>
        <mxCell id="u3Su8oJdby9Ypt89WTdl-148" value="members" style="shape=partialRectangle;connectable=0;fillColor=none;top=0;left=0;bottom=0;right=0;align=left;spacingLeft=6;overflow=hidden;" parent="u3Su8oJdby9Ypt89WTdl-146" vertex="1">
          <mxGeometry x="30" width="150" height="20" as="geometry">
            <mxRectangle width="150" height="20" as="alternateBounds" />
          </mxGeometry>
        </mxCell>
        <mxCell id="u3Su8oJdby9Ypt89WTdl-149" value="" style="shape=tableRow;horizontal=0;startSize=0;swimlaneHead=0;swimlaneBody=0;fillColor=none;collapsible=0;dropTarget=0;points=[[0,0.5],[1,0.5]];portConstraint=eastwest;top=0;left=0;right=0;bottom=0;" parent="u3Su8oJdby9Ypt89WTdl-139" vertex="1">
          <mxGeometry y="100" width="180" height="30" as="geometry" />
        </mxCell>
        <mxCell id="u3Su8oJdby9Ypt89WTdl-150" value="FK" style="shape=partialRectangle;connectable=0;fillColor=none;top=0;left=0;bottom=0;right=0;editable=1;overflow=hidden;" parent="u3Su8oJdby9Ypt89WTdl-149" vertex="1">
          <mxGeometry width="30" height="30" as="geometry">
            <mxRectangle width="30" height="30" as="alternateBounds" />
          </mxGeometry>
        </mxCell>
        <mxCell id="u3Su8oJdby9Ypt89WTdl-151" value="categories" style="shape=partialRectangle;connectable=0;fillColor=none;top=0;left=0;bottom=0;right=0;align=left;spacingLeft=6;overflow=hidden;" parent="u3Su8oJdby9Ypt89WTdl-149" vertex="1">
          <mxGeometry x="30" width="150" height="30" as="geometry">
            <mxRectangle width="150" height="30" as="alternateBounds" />
          </mxGeometry>
        </mxCell>
        <mxCell id="u3Su8oJdby9Ypt89WTdl-153" value="" style="shape=tableRow;horizontal=0;startSize=0;swimlaneHead=0;swimlaneBody=0;fillColor=none;collapsible=0;dropTarget=0;points=[[0,0.5],[1,0.5]];portConstraint=eastwest;top=0;left=0;right=0;bottom=0;" parent="u3Su8oJdby9Ypt89WTdl-139" vertex="1">
          <mxGeometry y="130" width="180" height="30" as="geometry" />
        </mxCell>
        <mxCell id="u3Su8oJdby9Ypt89WTdl-154" value="FK" style="shape=partialRectangle;connectable=0;fillColor=none;top=0;left=0;bottom=0;right=0;editable=1;overflow=hidden;" parent="u3Su8oJdby9Ypt89WTdl-153" vertex="1">
          <mxGeometry width="30" height="30" as="geometry">
            <mxRectangle width="30" height="30" as="alternateBounds" />
          </mxGeometry>
        </mxCell>
        <mxCell id="u3Su8oJdby9Ypt89WTdl-155" value="histories" style="shape=partialRectangle;connectable=0;fillColor=none;top=0;left=0;bottom=0;right=0;align=left;spacingLeft=6;overflow=hidden;" parent="u3Su8oJdby9Ypt89WTdl-153" vertex="1">
          <mxGeometry x="30" width="150" height="30" as="geometry">
            <mxRectangle width="150" height="30" as="alternateBounds" />
          </mxGeometry>
        </mxCell>
        <mxCell id="u3Su8oJdby9Ypt89WTdl-156" style="edgeStyle=orthogonalEdgeStyle;rounded=0;orthogonalLoop=1;jettySize=auto;html=1;startArrow=ERzeroToMany;startFill=0;endArrow=ERone;endFill=0;" parent="1" edge="1">
          <mxGeometry relative="1" as="geometry">
            <mxPoint x="246" y="173" as="sourcePoint" />
            <mxPoint x="661" y="220" as="targetPoint" />
            <Array as="points">
              <mxPoint x="661" y="173" />
            </Array>
          </mxGeometry>
        </mxCell>
        <mxCell id="milao0v2D2pgSHBRT2AL-2" style="edgeStyle=orthogonalEdgeStyle;rounded=0;orthogonalLoop=1;jettySize=auto;html=1;startArrow=ERzeroToMany;startFill=0;endArrow=ERone;endFill=0;" edge="1" parent="1">
          <mxGeometry relative="1" as="geometry">
            <mxPoint x="531" y="785" as="targetPoint" />
            <mxPoint x="422" y="785" as="sourcePoint" />
          </mxGeometry>
        </mxCell>
      </root>
    </mxGraphModel>
  </diagram>
</mxfile>
